<?xml version="1.0" encoding="utf-8"?>
<!-- Generator: Adobe Illustrator 27.3.1, SVG Export Plug-In . SVG Version: 6.00 Build 0)  -->
<svg version="1.1" id="Layer_1" xmlns="http://www.w3.org/2000/svg" xmlns:xlink="http://www.w3.org/1999/xlink" x="0px" y="0px"
	 viewBox="0 0 1000 1000" style="enable-background:new 0 0 1000 1000;" xml:space="preserve">
<style type="text/css">
	.st0{fill:#FFFFFF;}
	.st1{fill:#E92429;}
	.st2{fill:#293C8F;}
</style>
<g>
	<path class="st0" d="M1738.68,473.7h-14.69h-297.4c-4.66,0-93.34-1.14-122.93-60.64c-5.79-11.59-7.86-24.63-7.86-37.56l0.21-212.34
		h226.93H1537h0.62c29.7,0.93,97.06,7.14,130.69,45.01c15.86,17.81,22.26,40.45,18.85,68.8l-75.87-4.96l26.9,5.69l74.4,15.83
		l14.18,3l1.14-6.73c6.21-40.15-2.07-74.09-24.94-99.65c-51.84-58.88-155.32-53.6-169.6-54.64h-14.69l-244.31-0.21h-14.38
		c-13.14,0-23.9,10.76-23.9,23.9l-0.21,242.76c-16.25,26.18-75.75,131.31-36.73,218.96c26.18,58.67,89.41,95.2,187.81,108.45
		c3.73,0.41,7.04,0.72,10.66,1.24l-118.28,121.17h5.28h9.42h23.39h14.59h5.28l112.43-115.52c35.79,3,68.47,4.28,97.74,4.28
		c2.69,0,5.38,0,8.07-0.1c60.85-0.52,107.1-6.31,138.66-12.11c0.1-0.1,0.31-0.1,0.52-0.1c10.24-1.97,18.94-3.83,25.97-5.59v3.31
		v124.28h14.69h12.52h14.69V497.6C1762.59,484.36,1751.83,473.7,1738.68,473.7z"/>
	<g>
		<g>
			<g>
				<path class="st1" d="M1716.96,505.73v172.31c-42.68,9.68-146.98,26.04-308.02,4.79c-80.47-10.68-130.99-37.22-150.04-78.92
					c-26.58-57.87,11.41-133.2,28.32-162.33c31.37,49.39,98.6,64.15,140.36,64.15H1716.96z"/>
				<path class="st0" d="M1560.3,698.46c-43.28,0-93.96-2.84-152.04-10.51c-82.41-10.93-134.24-38.49-154.06-81.9
					c-26.3-57.24,6.59-129.25,28.54-167.08l4.27-7.37l4.57,7.19c28.96,45.59,91.36,61.76,135.99,61.76h294.55v181.61l-4.03,0.91
					C1687.91,689.93,1635.22,698.46,1560.3,698.46z M1287.67,451.31c-17.89,32.68-47.45,99.5-24.06,150.43
					c18.25,39.97,67.37,65.52,146.01,75.96c152.67,20.15,253.52,6.75,302.16-3.81V510.9h-284.2
					C1382.63,510.9,1320.49,495.13,1287.67,451.31z"/>
			</g>
		</g>
		<line class="st0" x1="1728.64" y1="284.28" x2="1727.7" y2="289.86"/>
		<g>
			<path class="st0" d="M2032.08,382.62L1379.93,254.9l632.54,157.04v61.72h-155.78c-8.93,0-15.95,7.18-15.95,15.95v360.68h18.02
				V496.95c0-2.87,2.39-5.1,5.26-5.1h164.87c9.73,0,17.54-7.97,17.54-17.7v-74.3C2046.43,391.39,2040.37,384.06,2032.08,382.62z"/>
			<polygon class="st0" points="1875.49,850.25 1893.6,850.25 1893.6,526.61 2046.46,526.61 2046.46,508.49 1875.49,508.49 			"/>
			<rect x="1236.67" y="863.21" class="st0" width="718.24" height="3.47"/>
		</g>
	</g>
</g>
<g>
	<path class="st2" d="M627.2,473.7h-14.69h-297.4c-4.66,0-93.34-1.14-122.93-60.64c-5.79-11.59-7.86-24.63-7.86-37.56l0.21-212.34
		h226.93h14.07h0.62c29.7,0.93,97.06,7.14,130.69,45.01c15.86,17.81,22.26,40.45,18.85,68.8l-75.87-4.96l26.9,5.69l74.4,15.83
		l14.18,3l1.14-6.73c6.21-40.15-2.07-74.09-24.94-99.65c-51.84-58.88-155.32-53.6-169.6-54.64h-14.69l-244.31-0.21h-14.38
		c-13.14,0-23.9,10.76-23.9,23.9l-0.21,242.76c-16.25,26.18-75.75,131.31-36.73,218.96c26.18,58.67,89.41,95.2,187.81,108.45
		c3.73,0.41,7.04,0.72,10.66,1.24L167.86,851.81h5.28h9.42h23.39h14.59h5.28l112.43-115.52c35.79,3,68.47,4.28,97.74,4.28
		c2.69,0,5.38,0,8.07-0.1c60.85-0.52,107.1-6.31,138.66-12.11c0.1-0.1,0.31-0.1,0.52-0.1c10.24-1.97,18.94-3.83,25.97-5.59v3.31
		v124.28h14.69h12.52h14.69V497.6C651.11,484.36,640.35,473.7,627.2,473.7z"/>
	<g>
		<g>
			<g>
				<path class="st1" d="M605.48,505.73v172.31c-42.68,9.68-146.98,26.04-308.02,4.79c-80.47-10.68-130.99-37.22-150.04-78.92
					c-26.58-57.87,11.41-133.2,28.32-162.33c31.37,49.39,98.6,64.15,140.36,64.15H605.48z"/>
				<path class="st0" d="M448.82,698.46c-43.28,0-93.96-2.84-152.04-10.51c-82.41-10.93-134.24-38.49-154.06-81.9
					c-26.3-57.24,6.59-129.25,28.54-167.08l4.27-7.37l4.57,7.19c28.96,45.59,91.36,61.76,135.99,61.76h294.55v181.61l-4.03,0.91
					C576.43,689.93,523.74,698.46,448.82,698.46z M176.19,451.31c-17.89,32.68-47.45,99.5-24.06,150.43
					c18.25,39.97,67.37,65.52,146.01,75.96c152.67,20.15,253.52,6.75,302.16-3.81V510.9H316.1
					C271.15,510.9,209,495.13,176.19,451.31z"/>
			</g>
		</g>
		<line class="st2" x1="617.15" y1="284.28" x2="616.22" y2="289.86"/>
		<g>
			<path class="st2" d="M920.6,382.62L268.45,254.9l632.54,157.04v61.72H745.2c-8.93,0-15.95,7.18-15.95,15.95v360.68h18.02V496.95
				c0-2.87,2.39-5.1,5.26-5.1h164.87c9.73,0,17.54-7.97,17.54-17.7v-74.3C934.95,391.39,928.89,384.06,920.6,382.62z"/>
			<polygon class="st2" points="764.01,850.25 782.12,850.25 782.12,526.61 934.98,526.61 934.98,508.49 764.01,508.49 			"/>
			<rect x="125.19" y="863.21" class="st2" width="718.24" height="3.47"/>
		</g>
	</g>
</g>
</svg>
